<?xml version="1.0" encoding="UTF-8"?>
<svg id="Ebene_2" data-name="Ebene 2" xmlns="http://www.w3.org/2000/svg" viewBox="0 0 63.51 72.25">
  <g id="Ebene_1-2" data-name="Ebene 1">
    <g>
      <path d="m61.63,16.53C52.26,11.14,42.93,5.68,33.49.39c-.91-.52-2.64-.51-3.56,0C20.44,5.72,11.03,11.17,1.66,16.7c-.81.48-1.58,1.81-1.58,2.76C0,28.15-.01,43.12.02,54.47c2.83,1.63,6.15,3.46,7.69,4.37,0,0-.02-23.19,0-33.26,0-4.65,2.78-6.24,6.83-3.91,5.77,3.32,11.5,6.75,17.34,9.96,2.64,1.45,3.76,3.38,3.74,6.39-.11,9.87-.04,32.16-.04,32.16.7-.24,17.95-10,26.17-14.92.89-.53,1.64-2.07,1.66-3.14.11-10.76.05-21.5.1-32.25,0-1.56-.58-2.57-1.89-3.32Zm-5.95,31.43c.02,1.41-.47,2.23-1.69,2.91-3.36,1.85-6.67,3.82-10.53,6.05v-9.03c0-5.31-.05-10.61.03-15.92.02-1.85-.65-3.05-2.25-3.96-6.44-3.67-20.58-11.97-21.63-12.67,2.93-1.71,5.36-3.14,8.13-4.8,2.97-1.78,5.08-1.92,8.01-.06,5.9,3.76,12.05,7.12,18.15,10.56,1.3.74,1.8,1.57,1.78,3.05-.06,7.95-.06,15.91,0,23.86Z"/>
      <path d="m30.95,72.25c-1.65-.97-4.78-2.92-7.23-4.47-.02-11.43.08-35.42.19-36.01,1.7.99,5.05,2.83,7.42,4.22.04,12.23-.15,35.7-.38,36.25Z"/>
      <path d="m19.29,65.51c-1.69-1-4.88-2.87-7.4-4.39-.02-11.1.33-35.43.33-36.12,1.65.96,4.85,2.88,7.33,4.41,0,12.15-.11,35.54-.26,36.1Z"/>
    </g>
  </g>
</svg>